# Blender v2.82 (sub 7) OBJ File: 'car.blend'
# www.blender.org
mtllib blueCar.mtl
o Cube.003
v 1.013326 2.140822 2.296320
v -0.973624 2.140822 2.296320
v 0.992254 2.128598 2.959482
v -0.929378 2.128598 2.959482
v 1.013326 2.626362 2.296320
v -0.973624 2.626362 2.296320
v 0.992254 2.614138 2.959482
v -0.929378 2.614138 2.959482
v -1.224941 -0.047950 -4.395983
v -1.224941 0.584118 -4.395983
v 1.322917 -0.047950 -4.395983
v 1.322917 0.584118 -4.395983
v -1.224941 -0.047950 4.060041
v -1.224941 0.584118 4.060041
v 1.322917 -0.047950 4.060041
v 1.322917 0.584118 4.060041
v 2.608337 -0.047950 2.296321
v 2.722832 -0.047950 -0.167971
v 2.238256 -0.047950 -3.171203
v 2.238256 0.584118 -3.171203
v 2.722832 0.584118 -0.167971
v 2.608337 0.584118 2.296321
v -2.140280 -0.047950 -3.171203
v -2.624856 -0.047950 -0.167971
v -2.510361 -0.047950 2.296321
v -2.510361 0.584118 2.296321
v -2.624856 0.584118 -0.167971
v -2.140280 0.584118 -3.171203
v 1.130539 -0.047950 -4.395983
v -1.026787 -0.047950 -4.395983
v -1.026787 0.584118 -4.395983
v 1.130539 0.584118 -4.395983
v -1.026787 -0.047950 4.060041
v 1.130538 -0.047950 4.060041
v 1.130538 0.584118 4.060041
v -1.026787 0.584118 4.060041
v 2.005987 0.584118 2.296321
v -1.948583 0.584118 2.296321
v 2.273735 0.584118 -0.167971
v -2.142944 0.584118 -0.167971
v 1.882627 0.584118 -3.171203
v -1.825222 0.584118 -3.171203
v 1.435651 -0.047950 -3.171203
v -1.331900 -0.047950 -3.171203
v 1.597177 -0.047950 -0.167971
v -1.493425 -0.047950 -0.167971
v 1.559012 -0.047950 2.296321
v -1.455261 -0.047950 2.296321
v 1.500448 -0.047950 -4.158435
v -1.402472 0.584118 -4.158435
v 1.500448 0.584118 -4.158435
v -1.402472 -0.047950 -4.158435
v 1.189716 -0.047950 -4.158435
v -1.085964 -0.047950 -4.158435
v 1.189716 0.584118 -4.158435
v -1.085964 0.584118 -4.158435
v 1.552923 0.584118 3.744450
v -1.454948 -0.047950 3.744450
v 1.552923 -0.047950 3.744450
v -1.454948 0.584118 3.744450
v 1.207207 0.584118 3.744450
v -1.103456 0.584118 3.744450
v 1.207207 -0.047950 3.744450
v -1.103456 -0.047950 3.744450
v 0.945625 -0.047950 -4.395983
v -0.859575 -0.047950 -4.395983
v -0.859575 0.584118 -4.395983
v 0.945625 0.584118 -4.395983
v -0.859576 -0.047950 4.060041
v 0.945625 -0.047950 4.060041
v 0.945625 0.584118 4.060041
v -0.859576 0.584118 4.060041
v 1.047329 -0.047950 -3.171203
v -0.961280 -0.047950 -3.171203
v 1.101171 -0.047950 -0.167971
v -1.015122 -0.047950 -0.167971
v 1.088449 -0.047950 2.296321
v -1.002400 -0.047950 2.296321
v 0.965351 0.584118 -4.158435
v -0.879301 0.584118 -4.158435
v 0.965351 -0.047950 -4.158435
v -0.879301 -0.047950 -4.158435
v 0.971181 -0.047950 3.744450
v -0.885132 -0.047950 3.744450
v 0.971181 0.584118 3.744450
v -0.885132 0.584118 3.744450
v 2.080630 -0.047950 3.020385
v -1.982654 0.584118 3.020385
v 1.383110 -0.047950 3.020385
v -1.279358 -0.047950 3.020385
v 2.080630 0.584118 3.020385
v -1.982654 -0.047950 3.020385
v 1.606597 0.584118 3.020385
v -1.526019 0.584118 3.020385
v 1.029815 -0.047950 3.020385
v -0.943766 -0.047950 3.020385
v 2.005987 0.584118 2.296321
v -1.948583 0.584118 2.296321
v 2.273735 0.584118 -0.167971
v -2.142944 0.584118 -0.167971
v 1.882627 0.584118 -3.171203
v -1.825222 0.584118 -3.171203
v 1.189716 0.584118 -4.158435
v -1.085964 0.584118 -4.158435
v 1.207207 0.584118 3.744450
v -1.103456 0.584118 3.744450
v 1.379989 2.140822 2.296321
v -1.322585 2.140822 2.296321
v 1.858064 2.149474 -0.167971
v -1.727273 2.149474 -0.167971
v 1.406901 1.686217 -3.171203
v -1.349496 1.686217 -3.171203
v 1.189716 1.056639 -4.158435
v -1.085964 1.056639 -4.158435
v 1.207207 2.116374 3.622645
v -1.103456 2.116374 3.622645
v 0.965351 0.584118 -4.158435
v -0.879301 0.584118 -4.158435
v 0.971181 0.584118 3.744450
v -0.885132 0.584118 3.744450
v 1.022297 1.686217 -3.171203
v -0.982594 1.686217 -3.171203
v 0.965351 1.056639 -4.158435
v -0.879301 1.056639 -4.158435
v 0.971181 2.116374 3.622645
v -0.885132 2.116374 3.622645
v 1.013326 1.983268 2.296321
v -0.973624 1.983268 2.296321
v 1.197147 1.991921 -0.167971
v -1.084058 1.991921 -0.167971
v 1.022297 1.528664 -3.171203
v -0.982594 1.528664 -3.171203
v 1.606597 0.584118 3.020385
v -1.526019 0.584118 3.020385
v 1.293598 2.128598 2.959483
v -1.213020 2.128598 2.959483
v 0.992254 2.128598 2.959483
v -0.929378 2.128598 2.959483
v 1.189716 0.584118 -4.158435
v -1.085964 0.584118 -4.158435
v 1.207207 0.584118 3.744450
v -1.103456 0.584118 3.744450
v 1.379989 2.140822 2.296321
v -1.322585 2.140822 2.296321
v 1.858064 2.149474 -0.167971
v -1.727273 2.149474 -0.167971
v 1.406901 1.686217 -3.171203
v -1.349496 1.686217 -3.171203
v 1.189716 1.056639 -4.158435
v -1.085964 1.056639 -4.158435
v 1.207207 2.116374 3.622645
v -1.103456 2.116374 3.622645
v 0.965351 0.584118 -4.158435
v -0.879301 0.584118 -4.158435
v 0.971181 0.584118 3.744450
v -0.885132 0.584118 3.744450
v 1.013326 2.140822 2.296321
v -0.973624 2.140822 2.296321
v 1.197147 2.149474 -0.167971
v -1.084058 2.149474 -0.167971
v 1.022297 1.686217 -3.171203
v -0.982594 1.686217 -3.171203
v 0.965351 1.056639 -4.158435
v -0.879301 1.056639 -4.158435
v 0.971181 2.116374 3.622645
v -0.885132 2.116374 3.622645
v 1.013326 1.983268 2.296321
v -0.973624 1.983268 2.296321
v 1.197147 1.991921 -0.167971
v -1.084058 1.991921 -0.167971
v 1.022297 1.528664 -3.171203
v -0.982594 1.528664 -3.171203
v 1.293598 2.128598 2.959483
v -1.213020 2.128598 2.959483
v 0.992254 2.128598 2.959483
v -0.929378 2.128598 2.959483
vt 0.803123 0.730648
vt 0.772395 0.541552
vt 0.794823 0.502267
vt 0.627470 0.687292
vt 0.768019 0.686869
vt 0.602601 0.727770
vt 0.608441 0.534752
vt 0.631013 0.587516
vt 0.430795 0.085914
vt 0.356912 0.157024
vt 0.352328 0.153563
vt 0.234305 0.500964
vt 0.229629 0.396973
vt 0.240600 0.393816
vt 0.092106 0.429041
vt 0.162162 0.360527
vt 0.166753 0.363995
vt 0.284775 0.016018
vt 0.286334 0.119331
vt 0.277385 0.121847
vt 0.169173 0.354175
vt 0.158212 0.349309
vt 0.301757 0.000244
vt 0.299809 0.018852
vt 0.000207 0.322303
vt 0.042684 0.361342
vt 0.025425 0.389521
vt 0.025837 0.128163
vt 0.038463 0.305437
vt 0.211049 0.028617
vt 0.060631 0.149626
vt 0.263543 0.151012
vt 0.287011 0.127612
vt 0.211486 0.233679
vt 0.240997 0.136329
vt 0.146930 0.293747
vt 0.173736 0.214230
vt 0.151767 0.321553
vt 0.444701 0.104908
vt 0.368101 0.203852
vt 0.360175 0.166153
vt 0.473184 0.177076
vt 0.343717 0.304693
vt 0.458621 0.368877
vt 0.295246 0.372345
vt 0.306283 0.284566
vt 0.225603 0.241082
vt 0.177978 0.307330
vt 0.344080 0.193842
vt 0.274200 0.157232
vt 0.350230 0.161322
vt 0.293417 0.130671
vt 0.493083 0.385020
vt 0.338337 0.475934
vt 0.345933 0.520062
vt 0.291349 0.501640
vt 0.275495 0.532786
vt 0.434973 0.095145
vt 0.448999 0.083354
vt 0.319762 0.000207
vt 0.309244 0.017155
vt 0.230878 0.387435
vt 0.175341 0.357447
vt 0.214148 0.493849
vt 0.223744 0.394954
vt 0.097048 0.435107
vt 0.171248 0.367194
vt 0.292530 0.121401
vt 0.425096 0.078652
vt 0.347130 0.149944
vt 0.493083 0.162392
vt 0.297874 0.123714
vt 0.212139 0.007461
vt 0.183179 0.335452
vt 0.173302 0.330849
vt 0.247979 0.371213
vt 0.267348 0.384410
vt 0.080184 0.447897
vt 0.212613 0.515159
vt 0.205338 0.494447
vt 0.087239 0.420484
vt 0.071031 0.433631
vt 0.193659 0.514815
vt 0.196643 0.493207
vt 0.238160 0.365139
vt 0.224101 0.383784
vt 0.343768 0.157511
vt 0.317538 0.017934
vt 0.218191 0.392486
vt 0.438626 0.067479
vt 0.332448 0.188298
vt 0.291667 0.276750
vt 0.265246 0.354083
vt 0.251880 0.346139
vt 0.191431 0.313597
vt 0.071955 0.408933
vt 0.919193 0.312750
vt 0.833275 0.360729
vt 0.724171 0.312626
vt 0.921095 0.072372
vt 0.645082 0.178609
vt 0.645855 0.069031
vt 0.276223 0.826655
vt 0.000207 0.720184
vt 0.276223 0.718757
vt 0.647975 0.039838
vt 0.920058 0.036292
vt 0.921095 0.180569
vt 0.274790 0.586945
vt 0.188704 0.537961
vt 0.271707 0.533199
vt 0.274977 0.863227
vt 0.004597 0.887919
vt 0.002911 0.858550
vt 0.079768 0.586880
vt 0.202207 0.992161
vt 0.083346 0.909158
vt 0.202207 0.904649
vt 0.000207 0.909158
vt 0.083346 0.989675
vt 0.000207 0.989675
vt 0.645082 0.366650
vt 0.914733 0.447676
vt 0.645082 0.447676
vt 0.491866 0.991770
vt 0.384291 0.900221
vt 0.491866 0.905041
vt 0.229928 0.992161
vt 0.384291 0.999793
vt 0.943760 0.365730
vt 0.914733 0.366650
vt 0.000975 0.829197
vt 0.649836 0.010627
vt 0.919286 0.000207
vt 0.469468 0.577410
vt 0.500092 0.509941
vt 0.480041 0.578161
vt 0.635481 0.986170
vt 0.618162 0.898623
vt 0.644668 0.983294
vt 0.525516 0.636594
vt 0.559367 0.784119
vt 0.498605 0.641336
vt 0.510358 0.535325
vt 0.526118 0.534639
vt 0.511287 0.527943
vt 0.524096 0.527385
vt 0.575677 0.779013
vt 0.608975 0.901498
vt 0.608523 0.084104
vt 0.578351 0.206355
vt 0.561411 0.201052
vt 0.511407 0.479127
vt 0.533829 0.453912
vt 0.524905 0.480086
vt 0.509653 0.449063
vt 0.525293 0.347818
vt 0.551666 0.639419
vt 0.497681 0.342559
vt 0.602714 0.785026
vt 0.644668 0.003300
vt 0.634786 0.000207
vt 0.525047 0.516861
vt 0.515897 0.523080
vt 0.515187 0.517290
vt 0.551526 0.345240
vt 0.553057 0.450217
vt 0.553098 0.534626
vt 0.489520 0.509190
vt 0.525757 0.522651
vt 0.916288 0.365317
vt 0.273987 0.899807
vt 0.229928 0.904649
vt 0.943760 0.449608
vt 0.618406 0.087198
vt 0.605445 0.200920
vn 0.0000 0.0000 1.0000
vn 0.0000 0.9998 0.0184
vn 0.9995 0.0000 0.0318
vn 0.0000 0.0000 -1.0000
vn -0.9978 0.0000 0.0666
vn 0.8081 0.0000 0.5890
vn -0.8010 0.0000 -0.5986
vn 0.0000 -1.0000 0.0000
vn 0.0000 1.0000 0.0000
vn -0.8081 0.0000 0.5890
vn -0.9989 0.0000 0.0464
vn -0.9872 0.0000 -0.1593
vn 0.8010 0.0000 -0.5986
vn 0.9872 0.0000 -0.1593
vn 0.9989 -0.0000 0.0464
vn 0.8358 0.3608 -0.4139
vn 0.9129 0.3671 0.1784
vn -0.9637 0.2559 0.0760
vn 0.8592 0.1928 0.4739
vn 0.9504 0.2524 -0.1817
vn -0.8005 0.0000 -0.5994
vn -0.9657 0.2021 0.1633
vn -0.9138 0.3945 -0.0967
vn 0.0000 0.8431 -0.5377
vn 0.0000 0.0792 0.9969
vn 0.0000 1.0000 0.0035
vn 0.0000 0.9883 -0.1524
vn -0.9161 0.3684 0.1581
vn 0.8750 0.0384 0.4826
vn 0.9990 0.0000 -0.0448
vn 0.9994 0.0000 0.0338
vn -0.9983 0.0000 0.0581
vn -0.9972 0.0000 -0.0744
vn 0.8185 0.0000 -0.5745
vn 0.9612 0.2552 0.1044
vn -0.9170 0.3688 0.1519
vn 0.9203 0.3701 0.1267
vn 0.9116 0.3935 -0.1187
vn -0.8219 0.3548 -0.4456
vn -0.8630 0.0400 0.5036
vn -0.9542 0.2534 -0.1591
vn -0.8477 0.1913 0.4947
vn 0.9707 0.2019 0.1302
usemtl Material.006
s off
f 3/1/1 8/2/1 4/3/1
f 5/4/2 8/2/2 7/5/2
f 1/6/3 7/5/3 3/1/3
f 2/7/4 5/4/4 1/6/4
f 2/7/5 8/2/5 6/8/5
f 32/9/4 11/10/4 29/11/4
f 57/12/6 15/13/6 59/14/6
f 36/15/1 13/16/1 33/17/1
f 50/18/7 9/19/7 52/20/7
f 64/21/8 13/16/8 58/22/8
f 56/23/9 10/24/9 50/18/9
f 38/25/9 88/26/9 94/27/9
f 40/28/9 26/29/9 38/25/9
f 40/28/9 28/30/9 27/31/9
f 44/32/8 52/20/8 54/33/8
f 46/34/8 23/35/8 44/32/8
f 46/34/8 25/36/8 24/37/8
f 88/26/10 25/36/10 92/38/10
f 26/29/11 24/37/11 25/36/11
f 27/31/12 23/35/12 24/37/12
f 51/39/13 19/40/13 49/41/13
f 20/42/14 18/43/14 19/40/14
f 21/44/15 17/45/15 18/43/15
f 17/45/8 45/46/8 18/43/8
f 76/47/8 48/48/8 46/34/8
f 19/40/8 45/46/8 43/49/8
f 76/47/8 44/32/8 74/50/8
f 49/41/8 43/49/8 53/51/8
f 74/50/8 54/33/8 82/52/8
f 20/42/9 39/53/9 21/44/9
f 22/54/9 39/53/9 37/55/9
f 91/56/9 37/55/9 93/57/9
f 12/58/9 55/59/9 51/39/9
f 80/60/9 31/61/9 56/23/9
f 15/13/8 63/62/8 59/14/8
f 84/63/8 33/17/8 64/21/8
f 16/64/1 34/65/1 15/13/1
f 72/66/1 33/17/1 69/67/1
f 10/24/4 30/68/4 9/19/4
f 68/69/4 29/11/4 65/70/4
f 51/39/9 41/71/9 20/42/9
f 82/52/8 30/68/8 66/72/8
f 11/10/8 53/51/8 29/11/8
f 12/58/13 49/41/13 11/10/13
f 54/33/8 9/19/8 30/68/8
f 42/73/9 50/18/9 28/30/9
f 28/30/7 52/20/7 23/35/7
f 96/74/8 64/21/8 90/75/8
f 59/14/8 89/76/8 87/77/8
f 86/78/9 36/15/9 72/66/9
f 16/64/9 61/79/9 35/80/9
f 14/81/10 58/22/10 13/16/10
f 62/82/9 14/81/9 36/15/9
f 90/75/8 58/22/8 92/38/8
f 91/56/6 59/14/6 87/77/6
f 35/80/9 85/83/9 71/84/9
f 85/83/9 72/66/9 71/84/9
f 63/62/8 95/85/8 89/76/8
f 83/86/8 96/74/8 95/85/8
f 29/11/8 81/87/8 65/70/8
f 81/87/8 66/72/8 65/70/8
f 31/61/4 66/72/4 30/68/4
f 67/88/4 65/70/4 66/72/4
f 35/80/1 70/89/1 34/65/1
f 71/84/1 69/67/1 70/89/1
f 34/65/8 83/86/8 63/62/8
f 70/89/8 84/63/8 83/86/8
f 32/9/9 79/90/9 55/59/9
f 68/69/9 80/60/9 79/90/9
f 53/51/8 73/91/8 81/87/8
f 73/91/8 82/52/8 81/87/8
f 43/49/8 75/92/8 73/91/8
f 75/92/8 74/50/8 73/91/8
f 47/93/8 75/92/8 45/46/8
f 77/94/8 76/47/8 75/92/8
f 77/94/8 96/74/8 78/95/8
f 89/76/8 77/94/8 47/93/8
f 22/54/6 87/77/6 17/45/6
f 48/48/8 92/38/8 25/36/8
f 87/77/8 47/93/8 17/45/8
f 78/95/8 90/75/8 48/48/8
f 57/12/9 93/57/9 61/79/9
f 60/96/10 92/38/10 58/22/10
f 94/27/9 60/96/9 62/82/9
f 101/97/16 113/98/16 111/99/16
f 97/100/17 109/101/17 107/102/17
f 98/103/18 110/104/18 100/105/18
f 97/100/19 135/106/19 133/107/19
f 99/108/20 111/99/20 109/101/20
f 102/109/21 114/110/21 104/111/21
f 134/112/22 116/113/22 136/114/22
f 100/105/23 112/115/23 102/109/23
f 121/116/24 124/117/24 122/118/24
f 118/119/4 123/120/4 117/121/4
f 119/122/25 126/123/25 120/124/25
f 127/125/26 130/126/26 128/127/26
f 131/128/27 130/126/27 129/129/27
f 122/118/1 131/128/1 121/116/1
f 137/130/2 126/123/2 125/131/2
f 98/103/28 136/114/28 108/132/28
f 133/107/29 115/133/29 105/134/29
f 141/135/25 165/136/25 155/137/25
f 140/138/4 164/139/4 154/140/4
f 160/141/27 148/142/27 146/143/27
f 160/141/26 144/144/26 158/145/26
f 158/145/2 174/146/2 176/147/2
f 162/148/24 150/149/24 148/142/24
f 149/150/24 161/151/24 147/152/24
f 173/153/2 157/154/2 175/155/2
f 143/156/26 159/157/26 157/154/26
f 158/145/30 170/158/30 160/141/30
f 147/152/27 159/157/27 145/159/27
f 162/148/31 170/158/31 172/160/31
f 153/161/4 149/150/4 139/162/4
f 156/163/25 152/164/25 142/165/25
f 161/151/32 169/166/32 159/157/32
f 157/154/33 169/166/33 167/167/33
f 157/154/4 168/168/4 158/145/4
f 151/169/2 175/155/2 165/136/2
f 176/147/2 152/164/2 166/170/2
f 3/1/1 7/5/1 8/2/1
f 5/4/2 6/8/2 8/2/2
f 1/6/3 5/4/3 7/5/3
f 2/7/4 6/8/4 5/4/4
f 2/7/5 4/3/5 8/2/5
f 32/9/4 12/58/4 11/10/4
f 57/12/6 16/64/6 15/13/6
f 36/15/1 14/81/1 13/16/1
f 50/18/7 10/24/7 9/19/7
f 64/21/8 33/17/8 13/16/8
f 56/23/9 31/61/9 10/24/9
f 38/25/9 26/29/9 88/26/9
f 40/28/9 27/31/9 26/29/9
f 40/28/9 42/73/9 28/30/9
f 44/32/8 23/35/8 52/20/8
f 46/34/8 24/37/8 23/35/8
f 46/34/8 48/48/8 25/36/8
f 88/26/10 26/29/10 25/36/10
f 26/29/11 27/31/11 24/37/11
f 27/31/12 28/30/12 23/35/12
f 51/39/13 20/42/13 19/40/13
f 20/42/14 21/44/14 18/43/14
f 21/44/15 22/54/15 17/45/15
f 17/45/8 47/93/8 45/46/8
f 76/47/8 78/95/8 48/48/8
f 19/40/8 18/43/8 45/46/8
f 76/47/8 46/34/8 44/32/8
f 49/41/8 19/40/8 43/49/8
f 74/50/8 44/32/8 54/33/8
f 20/42/9 41/71/9 39/53/9
f 22/54/9 21/44/9 39/53/9
f 91/56/9 22/54/9 37/55/9
f 12/58/9 32/9/9 55/59/9
f 80/60/9 67/88/9 31/61/9
f 15/13/8 34/65/8 63/62/8
f 84/63/8 69/67/8 33/17/8
f 16/64/1 35/80/1 34/65/1
f 72/66/1 36/15/1 33/17/1
f 10/24/4 31/61/4 30/68/4
f 68/69/4 32/9/4 29/11/4
f 51/39/9 55/59/9 41/71/9
f 82/52/8 54/33/8 30/68/8
f 11/10/8 49/41/8 53/51/8
f 12/58/13 51/39/13 49/41/13
f 54/33/8 52/20/8 9/19/8
f 42/73/9 56/23/9 50/18/9
f 28/30/7 50/18/7 52/20/7
f 96/74/8 84/63/8 64/21/8
f 59/14/8 63/62/8 89/76/8
f 86/78/9 62/82/9 36/15/9
f 16/64/9 57/12/9 61/79/9
f 14/81/10 60/96/10 58/22/10
f 62/82/9 60/96/9 14/81/9
f 90/75/8 64/21/8 58/22/8
f 91/56/6 57/12/6 59/14/6
f 35/80/9 61/79/9 85/83/9
f 85/83/9 86/78/9 72/66/9
f 63/62/8 83/86/8 95/85/8
f 83/86/8 84/63/8 96/74/8
f 29/11/8 53/51/8 81/87/8
f 81/87/8 82/52/8 66/72/8
f 31/61/4 67/88/4 66/72/4
f 67/88/4 68/69/4 65/70/4
f 35/80/1 71/84/1 70/89/1
f 71/84/1 72/66/1 69/67/1
f 34/65/8 70/89/8 83/86/8
f 70/89/8 69/67/8 84/63/8
f 32/9/9 68/69/9 79/90/9
f 68/69/9 67/88/9 80/60/9
f 53/51/8 43/49/8 73/91/8
f 73/91/8 74/50/8 82/52/8
f 43/49/8 45/46/8 75/92/8
f 75/92/8 76/47/8 74/50/8
f 47/93/8 77/94/8 75/92/8
f 77/94/8 78/95/8 76/47/8
f 77/94/8 95/85/8 96/74/8
f 89/76/8 95/85/8 77/94/8
f 22/54/6 91/56/6 87/77/6
f 48/48/8 90/75/8 92/38/8
f 87/77/8 89/76/8 47/93/8
f 78/95/8 96/74/8 90/75/8
f 57/12/9 91/56/9 93/57/9
f 60/96/10 88/26/10 92/38/10
f 94/27/9 88/26/9 60/96/9
f 101/97/34 103/171/34 113/98/34
f 97/100/35 99/108/35 109/101/35
f 98/103/36 108/132/36 110/104/36
f 97/100/37 107/102/37 135/106/37
f 99/108/38 101/97/38 111/99/38
f 102/109/39 112/115/39 114/110/39
f 134/112/40 106/172/40 116/113/40
f 100/105/41 110/104/41 112/115/41
f 121/116/24 123/120/24 124/117/24
f 118/119/4 124/117/4 123/120/4
f 119/122/25 125/131/25 126/123/25
f 127/125/26 129/129/26 130/126/26
f 131/128/27 132/173/27 130/126/27
f 122/118/1 132/173/1 131/128/1
f 137/130/2 138/174/2 126/123/2
f 98/103/42 134/112/42 136/114/42
f 133/107/43 135/106/43 115/133/43
f 141/135/25 151/169/25 165/136/25
f 140/138/4 150/149/4 164/139/4
f 160/141/27 162/148/27 148/142/27
f 160/141/26 146/143/26 144/144/26
f 158/145/2 144/144/2 174/146/2
f 162/148/24 164/139/24 150/149/24
f 149/150/24 163/175/24 161/151/24
f 173/153/2 143/156/2 157/154/2
f 143/156/26 145/159/26 159/157/26
f 158/145/30 168/168/30 170/158/30
f 147/152/27 161/151/27 159/157/27
f 162/148/31 160/141/31 170/158/31
f 153/161/4 163/175/4 149/150/4
f 156/163/25 166/170/25 152/164/25
f 161/151/32 171/176/32 169/166/32
f 157/154/33 159/157/33 169/166/33
f 157/154/4 167/167/4 168/168/4
f 151/169/2 173/153/2 175/155/2
f 176/147/2 174/146/2 152/164/2
