# Blender v2.82 (sub 7) OBJ File: 'car.blend'
# www.blender.org
mtllib blueCar.mtl
o Cube.010
v -1.224941 -0.047950 -4.395983
v -1.224941 0.584118 -4.395983
v 1.322917 -0.047950 -4.395983
v 1.322917 0.584118 -4.395983
v -1.224941 -0.047950 4.060040
v -1.224941 0.584118 4.060040
v 1.322917 -0.047950 4.060040
v 1.322917 0.584118 4.060040
v 2.608336 -0.047950 2.296320
v 2.722831 -0.047950 -0.167971
v 2.238256 -0.047950 -3.171202
v 2.238256 0.584118 -3.171202
v 2.722831 0.584118 -0.167971
v 2.608336 0.584118 2.296320
v -2.140279 -0.047950 -3.171202
v -2.624856 -0.047950 -0.167971
v -2.510360 -0.047950 2.296320
v -2.510360 0.584118 2.296320
v -2.624856 0.584118 -0.167971
v -2.140279 0.584118 -3.171202
v 1.130539 -0.047950 -4.395983
v -1.026787 -0.047950 -4.395983
v -1.026787 0.584118 -4.395983
v 1.130539 0.584118 -4.395983
v -1.026787 -0.047950 4.060040
v 1.130538 -0.047950 4.060040
v 1.130538 0.584118 4.060040
v -1.026787 0.584118 4.060040
v 2.005987 0.584118 2.296320
v -1.948582 0.584118 2.296320
v 2.273734 0.584118 -0.167971
v -2.142943 0.584118 -0.167971
v 1.882627 0.584118 -3.171202
v -1.825222 0.584118 -3.171202
v 1.435651 -0.047950 -3.171202
v -1.331900 -0.047950 -3.171202
v 1.597177 -0.047950 -0.167971
v -1.493425 -0.047950 -0.167971
v 1.559012 -0.047950 2.296320
v -1.455260 -0.047950 2.296320
v 1.500448 -0.047950 -4.158435
v -1.402472 0.584118 -4.158435
v 1.500448 0.584118 -4.158435
v -1.402472 -0.047950 -4.158435
v 1.189716 -0.047950 -4.158435
v -1.085964 -0.047950 -4.158435
v 1.189716 0.584118 -4.158435
v -1.085964 0.584118 -4.158435
v 1.552923 0.584118 3.744449
v -1.454947 -0.047950 3.744449
v 1.552923 -0.047950 3.744449
v -1.454947 0.584118 3.744449
v 1.207207 0.584118 3.744450
v -1.103456 0.584118 3.744450
v 1.207207 -0.047950 3.744450
v -1.103456 -0.047950 3.744450
v 1.379989 2.140822 2.296320
v -1.322585 2.140822 2.296320
v 1.858064 2.149474 -0.167971
v -1.727273 2.149474 -0.167971
v 1.406901 1.686217 -3.171202
v -1.349496 1.686217 -3.171202
v 1.189716 1.056639 -4.158435
v -1.085964 1.056639 -4.158435
v 1.207207 2.116374 3.622644
v -1.103456 2.116374 3.622644
v 0.945625 -0.047950 -4.395983
v -0.859575 -0.047950 -4.395983
v -0.859575 0.584118 -4.395983
v 0.945625 0.584118 -4.395983
v -0.859576 -0.047950 4.060040
v 0.945625 -0.047950 4.060040
v 0.945625 0.584118 4.060040
v -0.859576 0.584118 4.060040
v 1.047329 -0.047950 -3.171202
v -0.961280 -0.047950 -3.171202
v 1.101171 -0.047950 -0.167971
v -1.015122 -0.047950 -0.167971
v 1.088449 -0.047950 2.296320
v -1.002400 -0.047950 2.296320
v 0.965351 0.584118 -4.158435
v -0.879301 0.584118 -4.158435
v 0.965351 -0.047950 -4.158435
v -0.879301 -0.047950 -4.158435
v 0.971181 -0.047950 3.744450
v -0.885132 -0.047950 3.744450
v 0.971181 0.584118 3.744450
v -0.885132 0.584118 3.744450
v 1.013326 2.140822 2.296320
v -0.973624 2.140822 2.296320
v 1.197147 2.149474 -0.167971
v -1.084058 2.149474 -0.167971
v 1.022297 1.686217 -3.171202
v -0.982594 1.686217 -3.171202
v 0.965351 1.056639 -4.158435
v -0.879301 1.056639 -4.158435
v 0.971181 2.116374 3.622644
v -0.885132 2.116374 3.622644
v 1.013326 1.983268 2.296320
v -0.973624 1.983268 2.296320
v 1.197147 1.991921 -0.167971
v -1.084058 1.991921 -0.167971
v 1.022297 1.528664 -3.171202
v -0.982594 1.528664 -3.171202
v 2.080629 -0.047950 3.020385
v -1.982654 0.584118 3.020385
v 1.383109 -0.047950 3.020385
v -1.279358 -0.047950 3.020385
v 2.080629 0.584118 3.020385
v -1.982654 -0.047950 3.020385
v 1.606597 0.584118 3.020385
v -1.526019 0.584118 3.020385
v 1.293598 2.128598 2.959482
v -1.213020 2.128598 2.959482
v 0.992254 2.128598 2.959482
v -0.929378 2.128598 2.959482
v 1.029815 -0.047950 3.020385
v -0.943766 -0.047950 3.020385
v 1.013326 2.626362 2.296320
v -0.973624 2.626362 2.296320
v 0.992254 2.614138 2.959482
v -0.929378 2.614138 2.959482
vt 0.625000 0.166667
vt 0.375000 0.250000
vt 0.375000 0.166667
vt 0.625000 0.488817
vt 0.375000 0.500000
vt 0.375000 0.488817
vt 0.625000 0.666667
vt 0.375000 0.750000
vt 0.375000 0.666667
vt 0.625000 0.987878
vt 0.375000 1.000000
vt 0.375000 0.987878
vt 0.363817 0.666667
vt 0.363817 0.750000
vt 0.862878 0.666667
vt 0.875000 0.750000
vt 0.862878 0.750000
vt 0.687500 0.666667
vt 0.661842 0.750000
vt 0.661842 0.666667
vt 0.750000 0.666667
vt 0.687500 0.750000
vt 0.812500 0.750000
vt 0.750000 0.750000
vt 0.187500 0.666667
vt 0.137122 0.750000
vt 0.137122 0.666667
vt 0.250000 0.666667
vt 0.187500 0.750000
vt 0.312500 0.750000
vt 0.250000 0.750000
vt 0.625000 0.786842
vt 0.375000 0.812500
vt 0.375000 0.786842
vt 0.625000 0.812500
vt 0.375000 0.875000
vt 0.625000 0.875000
vt 0.375000 0.937500
vt 0.625000 0.262122
vt 0.375000 0.312500
vt 0.375000 0.262122
vt 0.625000 0.312500
vt 0.375000 0.375000
vt 0.625000 0.375000
vt 0.375000 0.437500
vt 0.312500 0.500000
vt 0.250000 0.583333
vt 0.250000 0.500000
vt 0.250000 0.638889
vt 0.312500 0.666667
vt 0.187500 0.500000
vt 0.187500 0.583333
vt 0.187500 0.638889
vt 0.137122 0.500000
vt 0.137122 0.583333
vt 0.137122 0.638889
vt 0.812500 0.500000
vt 0.750000 0.583333
vt 0.750000 0.500000
vt 0.687500 0.500000
vt 0.687500 0.583333
vt 0.661842 0.500000
vt 0.661842 0.583333
vt 0.875000 0.500000
vt 0.862878 0.583333
vt 0.862878 0.500000
vt 0.862878 0.638889
vt 0.875000 0.666667
vt 0.363817 0.583333
vt 0.363817 0.500000
vt 0.363817 0.638889
vt 0.625000 0.500000
vt 0.375000 0.583333
vt 0.625000 0.638889
vt 0.375000 0.638889
vt 0.625000 0.000000
vt 0.375000 0.083333
vt 0.375000 0.000000
vt 0.625000 0.138889
vt 0.375000 0.138889
vt 0.812500 0.583333
vt 0.125000 0.666667
vt 0.125000 0.638889
vt 0.125000 0.500000
vt 0.125000 0.583333
vt 0.625000 0.250000
vt 0.125000 0.750000
vt 0.812500 0.666667
vt 0.625000 0.937500
vt 0.338158 0.638889
vt 0.338158 0.666667
vt 0.338158 0.583333
vt 0.338158 0.500000
vt 0.636184 0.638889
vt 0.636184 0.583333
vt 0.625000 0.583333
vt 0.625000 0.750000
vt 0.375000 0.761183
vt 0.636184 0.666667
vt 0.338158 0.750000
vt 0.625000 0.463158
vt 0.375000 0.463158
vt 0.636183 0.611111
vt 0.625000 0.611111
vt 0.338158 0.611111
vt 0.363817 0.611111
vt 0.137122 0.611111
vt 0.125000 0.611111
vt 0.625000 0.083333
vt 0.375000 0.111111
vt 0.625000 0.111111
vt 0.375000 0.611111
vt 0.875000 0.583333
vt 0.862878 0.611111
vt 0.875000 0.638889
vt 0.187500 0.611111
vt 0.250000 0.611111
vt 0.312500 0.583333
vt 0.312500 0.611111
vt 0.312500 0.638889
vt 0.625000 0.437500
vt 0.636183 0.500000
vt 0.625000 0.761184
vt 0.636183 0.750000
vt 0.625000 1.000000
vt 0.875000 0.611111
vt 0.636184 0.611111
vt 0.862878 0.638889
vt 0.750000 0.638889
vt 0.812500 0.666667
vt 0.750000 0.666667
vt 0.687500 0.666667
vt 0.687500 0.638889
vt 0.661842 0.666667
vt 0.661842 0.638889
vt 0.812500 0.638889
vt 0.862878 0.666667
vt 0.862878 0.583333
vt 0.812500 0.611111
vt 0.812500 0.583333
vt 0.661842 0.583333
vt 0.687500 0.611111
vt 0.661842 0.611111
vt 0.687500 0.583333
vt 0.750000 0.611111
vt 0.750000 0.638889
vt 0.750000 0.583333
vt 0.812500 0.638889
vt 0.636184 0.666667
vt 0.750000 0.611111
vt 0.812500 0.611111
vt 0.687500 0.611111
vt 0.687500 0.638889
vt 0.636184 0.583333
vt 0.636184 0.638889
vt 0.862878 0.611111
vt 0.661842 0.638889
vt 0.687500 0.611111
vt 0.661842 0.611111
vt 0.687500 0.638889
vn 0.0000 0.0000 -1.0000
vn 0.8081 0.0000 0.5890
vn 0.0000 0.0000 1.0000
vn -0.8010 0.0000 -0.5986
vn 0.0000 -1.0000 0.0000
vn 0.0000 1.0000 -0.0000
vn -0.8081 0.0000 0.5890
vn -0.9989 0.0000 0.0464
vn -0.9872 -0.0000 -0.1593
vn 0.8010 0.0000 -0.5986
vn 0.9872 0.0000 -0.1593
vn 0.9989 -0.0000 0.0464
vn 0.0000 0.0792 0.9969
vn 0.0000 0.9883 -0.1524
vn 0.0000 1.0000 0.0035
vn 0.0000 0.9998 0.0184
vn 0.0000 0.8431 -0.5377
vn 0.9990 0.0000 -0.0448
vn 0.9994 0.0000 0.0338
vn -0.9983 0.0000 0.0581
vn -0.9972 0.0000 -0.0744
vn 0.9995 0.0000 0.0318
vn -0.9978 0.0000 0.0666
vn 0.8358 0.3608 -0.4139
vn 0.9129 0.3671 0.1784
vn -0.9637 0.2559 0.0760
vn 0.8592 0.1928 0.4739
vn 0.9504 0.2524 -0.1817
vn -0.8005 0.0000 -0.5994
vn -0.9657 0.2021 0.1633
vn -0.9138 0.3945 -0.0967
vn 0.0000 0.9883 -0.1525
vn -0.9161 0.3684 0.1581
vn 0.8750 0.0384 0.4826
vn 0.8185 0.0000 -0.5745
vn 0.9612 0.2552 0.1044
vn -0.9170 0.3688 0.1519
vn 0.9203 0.3701 0.1267
vn 0.9116 0.3935 -0.1187
vn -0.8219 0.3548 -0.4456
vn -0.8630 0.0400 0.5036
vn -0.9542 0.2534 -0.1591
vn -0.8477 0.1913 0.4947
vn 0.9707 0.2019 0.1302
usemtl Black
s off
f 24/1/1 3/2/1 21/3/1
f 49/4/2 7/5/2 51/6/2
f 28/7/3 5/8/3 25/9/3
f 42/10/4 1/11/4 44/12/4
f 56/13/5 5/8/5 50/14/5
f 48/15/6 2/16/6 42/17/6
f 30/18/6 106/19/6 112/20/6
f 32/21/6 18/22/6 30/18/6
f 32/21/6 20/23/6 19/24/6
f 36/25/5 44/26/5 46/27/5
f 38/28/5 15/29/5 36/25/5
f 38/28/5 17/30/5 16/31/5
f 106/32/7 17/33/7 110/34/7
f 18/35/8 16/36/8 17/33/8
f 19/37/9 15/38/9 16/36/9
f 43/39/10 11/40/10 41/41/10
f 12/42/11 10/43/11 11/40/11
f 13/44/12 9/45/12 10/43/12
f 9/46/5 37/47/5 10/48/5
f 78/49/5 40/50/5 38/28/5
f 11/51/5 37/47/5 35/52/5
f 78/49/5 36/25/5 76/53/5
f 41/54/5 35/52/5 45/55/5
f 76/53/5 46/27/5 84/56/5
f 12/57/6 31/58/6 13/59/6
f 14/60/6 31/58/6 29/61/6
f 109/62/6 29/61/6 111/63/6
f 4/64/6 47/65/6 43/66/6
f 82/67/6 23/68/6 48/15/6
f 7/5/5 55/69/5 51/70/5
f 86/71/5 25/9/5 56/13/5
f 8/72/3 26/73/3 7/5/3
f 74/74/3 25/9/3 71/75/3
f 2/76/1 22/77/1 1/78/1
f 70/79/1 21/3/1 67/80/1
f 43/66/6 33/81/6 12/57/6
f 84/56/5 22/82/5 68/83/5
f 3/84/5 45/55/5 21/85/5
f 4/86/10 41/41/10 3/2/10
f 46/27/5 1/87/5 22/82/5
f 34/88/6 42/17/6 20/23/6
f 20/89/4 44/12/4 15/38/4
f 118/90/5 56/13/5 108/91/5
f 51/70/5 107/92/5 105/93/5
f 88/94/6 28/7/6 74/74/6
f 8/72/6 53/95/6 27/96/6
f 6/97/7 50/98/7 5/8/7
f 54/99/6 6/97/6 28/7/6
f 108/91/5 50/14/5 110/100/5
f 109/101/2 51/6/2 105/102/2
f 27/96/6 87/103/6 73/104/6
f 87/103/6 74/74/6 73/104/6
f 55/69/5 117/105/5 107/92/5
f 85/106/5 118/90/5 117/105/5
f 21/85/5 83/107/5 67/108/5
f 83/107/5 68/83/5 67/108/5
f 23/109/1 68/110/1 22/77/1
f 69/111/1 67/80/1 68/110/1
f 27/96/3 72/112/3 26/73/3
f 73/104/3 71/75/3 72/112/3
f 26/73/5 85/106/5 55/69/5
f 72/112/5 86/71/5 85/106/5
f 24/113/6 81/114/6 47/65/6
f 81/114/6 69/115/6 82/67/6
f 45/55/5 75/116/5 83/107/5
f 75/116/5 84/56/5 83/107/5
f 35/52/5 77/117/5 75/116/5
f 77/117/5 76/53/5 75/116/5
f 39/118/5 77/117/5 37/47/5
f 79/119/5 78/49/5 77/117/5
f 117/105/5 80/120/5 79/119/5
f 107/92/5 79/119/5 39/118/5
f 14/121/2 105/102/2 9/45/2
f 40/50/5 110/100/5 17/30/5
f 105/93/5 39/118/5 9/46/5
f 80/120/5 108/91/5 40/50/5
f 49/122/6 111/63/6 53/95/6
f 52/123/7 110/34/7 50/98/7
f 112/20/6 52/124/6 54/99/6
f 24/1/1 4/86/1 3/2/1
f 49/4/2 8/72/2 7/5/2
f 28/7/3 6/97/3 5/8/3
f 42/10/4 2/125/4 1/11/4
f 56/13/5 25/9/5 5/8/5
f 48/15/6 23/68/6 2/16/6
f 30/18/6 18/22/6 106/19/6
f 32/21/6 19/24/6 18/22/6
f 32/21/6 34/88/6 20/23/6
f 36/25/5 15/29/5 44/26/5
f 38/28/5 16/31/5 15/29/5
f 38/28/5 40/50/5 17/30/5
f 106/32/7 18/35/7 17/33/7
f 18/35/8 19/37/8 16/36/8
f 19/37/9 20/89/9 15/38/9
f 43/39/10 12/42/10 11/40/10
f 12/42/11 13/44/11 10/43/11
f 13/44/12 14/121/12 9/45/12
f 9/46/5 39/118/5 37/47/5
f 78/49/5 80/120/5 40/50/5
f 11/51/5 10/48/5 37/47/5
f 78/49/5 38/28/5 36/25/5
f 41/54/5 11/51/5 35/52/5
f 76/53/5 36/25/5 46/27/5
f 12/57/6 33/81/6 31/58/6
f 14/60/6 13/59/6 31/58/6
f 109/62/6 14/60/6 29/61/6
f 4/64/6 24/113/6 47/65/6
f 82/67/6 69/115/6 23/68/6
f 7/5/5 26/73/5 55/69/5
f 86/71/5 71/75/5 25/9/5
f 8/72/3 27/96/3 26/73/3
f 74/74/3 28/7/3 25/9/3
f 2/76/1 23/109/1 22/77/1
f 70/79/1 24/1/1 21/3/1
f 43/66/6 47/65/6 33/81/6
f 84/56/5 46/27/5 22/82/5
f 3/84/5 41/54/5 45/55/5
f 4/86/10 43/39/10 41/41/10
f 46/27/5 44/26/5 1/87/5
f 34/88/6 48/15/6 42/17/6
f 20/89/4 42/10/4 44/12/4
f 118/90/5 86/71/5 56/13/5
f 51/70/5 55/69/5 107/92/5
f 88/94/6 54/99/6 28/7/6
f 8/72/6 49/122/6 53/95/6
f 6/97/7 52/123/7 50/98/7
f 54/99/6 52/124/6 6/97/6
f 108/91/5 56/13/5 50/14/5
f 109/101/2 49/4/2 51/6/2
f 27/96/6 53/95/6 87/103/6
f 87/103/6 88/94/6 74/74/6
f 55/69/5 85/106/5 117/105/5
f 85/106/5 86/71/5 118/90/5
f 21/85/5 45/55/5 83/107/5
f 83/107/5 84/56/5 68/83/5
f 23/109/1 69/111/1 68/110/1
f 69/111/1 70/79/1 67/80/1
f 27/96/3 73/104/3 72/112/3
f 73/104/3 74/74/3 71/75/3
f 26/73/5 72/112/5 85/106/5
f 72/112/5 71/75/5 86/71/5
f 24/113/6 70/126/6 81/114/6
f 81/114/6 70/126/6 69/115/6
f 45/55/5 35/52/5 75/116/5
f 75/116/5 76/53/5 84/56/5
f 35/52/5 37/47/5 77/117/5
f 77/117/5 78/49/5 76/53/5
f 39/118/5 79/119/5 77/117/5
f 79/119/5 80/120/5 78/49/5
f 117/105/5 118/90/5 80/120/5
f 107/92/5 117/105/5 79/119/5
f 14/121/2 109/101/2 105/102/2
f 40/50/5 108/91/5 110/100/5
f 105/93/5 107/92/5 39/118/5
f 80/120/5 118/90/5 108/91/5
f 49/122/6 109/62/6 111/63/6
f 52/123/7 106/32/7 110/34/7
f 112/20/6 106/19/6 52/124/6
usemtl Orange
f 53/95/13 97/127/13 87/103/13
f 48/15/1 96/128/1 82/67/1
f 92/129/14 62/130/14 60/131/14
f 92/129/15 58/132/15 90/133/15
f 90/133/16 114/134/16 116/135/16
f 94/136/17 64/137/17 62/130/17
f 63/138/17 93/139/17 61/140/17
f 113/141/16 89/142/16 115/143/16
f 57/144/15 91/145/15 89/142/15
f 90/133/18 102/146/18 92/129/18
f 61/140/14 91/145/14 59/147/14
f 94/136/19 102/146/19 104/148/19
f 81/114/1 63/138/1 47/65/1
f 88/94/13 66/149/13 54/99/13
f 93/139/20 101/150/20 91/145/20
f 94/136/3 103/151/3 93/139/3
f 89/142/21 101/150/21 99/152/21
f 89/142/1 100/153/1 90/133/1
f 65/154/16 115/143/16 97/127/16
f 116/135/16 66/149/16 98/155/16
f 53/95/13 65/154/13 97/127/13
f 48/15/1 64/137/1 96/128/1
f 92/129/14 94/136/14 62/130/14
f 92/129/15 60/131/15 58/132/15
f 90/133/16 58/132/16 114/134/16
f 94/136/17 96/128/17 64/137/17
f 63/138/17 95/156/17 93/139/17
f 113/141/16 57/144/16 89/142/16
f 57/144/15 59/147/15 91/145/15
f 90/133/18 100/153/18 102/146/18
f 61/140/14 93/139/14 91/145/14
f 94/136/19 92/129/19 102/146/19
f 81/114/1 95/156/1 63/138/1
f 88/94/13 98/155/13 66/149/13
f 93/139/20 103/151/20 101/150/20
f 94/136/3 104/148/3 103/151/3
f 89/142/21 91/145/21 101/150/21
f 89/142/1 99/152/1 100/153/1
f 65/154/16 113/141/16 115/143/16
f 116/135/16 114/134/16 66/149/16
usemtl Brown
f 115/143/3 122/157/3 116/135/3
f 119/158/16 122/157/16 121/159/16
f 89/142/22 121/159/22 115/143/22
f 90/133/1 119/158/1 89/142/1
f 90/133/23 122/157/23 120/160/23
f 115/143/3 121/159/3 122/157/3
f 119/158/16 120/160/16 122/157/16
f 89/142/22 119/158/22 121/159/22
f 90/133/1 120/160/1 119/158/1
f 90/133/23 116/135/23 122/157/23
usemtl Blue
f 33/81/24 63/138/24 61/140/24
f 29/61/25 59/147/25 57/144/25
f 30/18/26 60/131/26 32/21/26
f 29/61/27 113/141/27 111/63/27
f 31/58/28 61/140/28 59/147/28
f 34/88/29 64/137/29 48/15/29
f 112/20/30 66/149/30 114/134/30
f 32/21/31 62/130/31 34/88/31
f 93/139/17 96/128/17 94/136/17
f 82/67/1 95/156/1 81/114/1
f 87/103/13 98/155/13 88/94/13
f 99/152/15 102/146/15 100/153/15
f 103/151/32 102/146/32 101/150/32
f 115/143/16 98/155/16 97/127/16
f 30/18/33 114/134/33 58/132/33
f 111/63/34 65/154/34 53/95/34
f 33/81/35 47/65/35 63/138/35
f 29/61/36 31/58/36 59/147/36
f 30/18/37 58/132/37 60/131/37
f 29/61/38 57/144/38 113/141/38
f 31/58/39 33/81/39 61/140/39
f 34/88/40 62/130/40 64/137/40
f 112/20/41 54/99/41 66/149/41
f 32/21/42 60/131/42 62/130/42
f 93/139/17 95/156/17 96/128/17
f 82/67/1 96/128/1 95/156/1
f 87/103/13 97/127/13 98/155/13
f 99/152/15 101/150/15 102/146/15
f 103/151/14 104/148/14 102/146/14
f 115/143/16 116/135/16 98/155/16
f 30/18/43 112/20/43 114/134/43
f 111/63/44 113/141/44 65/154/44
