# Blender v2.82 (sub 7) OBJ File: 'Boost.blend'
# www.blender.org
mtllib Powerup.mtl
o Cube
v -0.124235 3.251027 -0.076289
v -0.000000 3.251668 0.138892
v 0.124235 3.251027 -0.076289
v 0.000000 2.092101 -1.490649
v -0.124235 2.295190 -1.419528
v 0.124235 2.295190 -1.419528
v 1.289978 2.301213 0.599590
v 1.165743 2.301855 0.814771
v 1.289978 2.098767 0.743649
v 1.289978 1.345377 -0.743649
v 1.289978 1.142930 -0.599590
v 1.165743 1.142288 -0.814770
v -1.289978 2.301213 0.599590
v -1.289978 2.098767 0.743649
v -1.165743 2.301855 0.814770
v -1.289978 1.142930 -0.599590
v -1.289978 1.345377 -0.743649
v -1.165743 1.142288 -0.814771
v -0.124235 1.148954 1.419528
v 0.124235 1.148954 1.419528
v -0.000000 1.352042 1.490649
v 0.000000 0.192475 -0.138892
v 0.124235 0.193117 0.076289
v -0.124235 0.193117 0.076289
v 1.395548 2.354946 0.630566
v 1.395548 2.110424 0.804565
v -0.150055 2.348510 -1.526681
v 0.000000 2.103213 -1.612584
v 0.150056 2.348510 -1.526681
v -0.000000 3.370512 0.168352
v -0.150055 3.369737 -0.091550
v 0.150055 3.369737 -0.091550
v -0.124235 3.251027 -0.076289
v 0.000000 3.251668 0.138892
v 0.124235 3.251027 -0.076289
v 0.000000 2.092101 -1.490649
v -0.124235 2.295190 -1.419528
v 0.124235 2.295190 -1.419527
v 1.289978 2.301213 0.599590
v 1.165743 2.301855 0.814771
v 1.289978 2.098767 0.743649
v 1.289978 1.345377 -0.743649
v 1.289978 1.142930 -0.599590
v 1.165743 1.142288 -0.814770
v -1.289978 2.301213 0.599590
v -1.289978 2.098767 0.743649
v -1.165743 2.301855 0.814770
v -1.289978 1.142930 -0.599590
v -1.289978 1.345376 -0.743649
v -1.165743 1.142288 -0.814771
v -0.124235 1.148954 1.419528
v 0.124235 1.148954 1.419528
v -0.000000 1.352042 1.490649
v 0.000000 0.192475 -0.138892
v 0.124235 0.193117 0.076289
v -0.124235 0.193117 0.076289
v 1.245493 2.355721 0.890468
v 1.245493 1.088422 -0.890468
v 1.395548 1.333719 -0.804565
v 1.395548 1.089198 -0.630566
v -1.245493 2.355721 0.890468
v -1.395548 2.354946 0.630566
v -1.395548 2.110424 0.804565
v -1.245493 1.088422 -0.890468
v -1.395548 1.089198 -0.630566
v -1.395548 1.333719 -0.804565
v -0.000000 1.340930 1.612585
v -0.150056 1.095633 1.526681
v 0.150055 1.095633 1.526682
v -0.150055 0.074407 0.091550
v 0.000000 0.073631 -0.168352
v 0.150055 0.074407 0.091551
vt 0.353038 0.521962
vt 0.146962 0.728038
vt 0.146962 0.521962
vt 0.603038 0.021962
vt 0.396962 0.228038
vt 0.396962 0.021962
vt 0.603038 0.771962
vt 0.396962 0.978038
vt 0.396962 0.771962
vt 0.853038 0.521962
vt 0.646962 0.728038
vt 0.646962 0.521962
vt 0.603038 0.521962
vt 0.396962 0.728038
vt 0.396962 0.521962
vt 0.603038 0.271962
vt 0.396962 0.478038
vt 0.396962 0.271962
vt 0.603038 0.478038
vt 0.625000 0.478038
vt 0.603038 0.500000
vt 0.146962 0.521962
vt 0.353038 0.521962
vt 0.353038 0.521962
vt 0.603038 0.728038
vt 0.396962 0.728038
vt 0.396962 0.728038
vt 0.353038 0.728038
vt 0.146962 0.728038
vt 0.146962 0.728038
vt 0.396962 0.228038
vt 0.396962 0.021962
vt 0.396962 0.021962
vt 0.396962 0.521962
vt 0.396962 0.521962
vt 0.603038 0.771962
vt 0.396962 0.771962
vt 0.603038 0.771962
vt 0.603038 0.521962
vt 0.603038 0.728038
vt 0.146962 0.521962
vt 0.353038 0.728038
vt 0.603038 0.021962
vt 0.603038 0.021962
vt 0.646962 0.728038
vt 0.646962 0.521962
vt 0.646962 0.521962
vt 0.603038 0.271962
vt 0.603038 0.478038
vt 0.603038 0.978038
vt 0.396962 0.978038
vt 0.396962 0.978038
vt 0.603038 0.978038
vt 0.853038 0.521962
vt 0.853038 0.521962
vt 0.396962 0.478038
vt 0.396962 0.478038
vt 0.853038 0.728038
vt 0.646962 0.728038
vt 0.603038 0.228038
vt 0.603038 0.228038
vt 0.603038 0.521962
vt 0.396962 0.228038
vt 0.353038 0.500000
vt 0.375000 0.521962
vt 0.625000 0.728038
vt 0.603038 0.750000
vt 0.396962 0.750000
vt 0.375000 0.728038
vt 0.603038 0.271962
vt 0.603038 0.250000
vt 0.625000 0.271962
vt 0.396962 0.250000
vt 0.375000 0.228038
vt 0.603038 0.000000
vt 0.625000 0.021962
vt 0.146962 0.750000
vt 0.125000 0.728038
vt 0.125000 0.521962
vt 0.396962 1.000000
vt 0.396962 0.271962
vt 0.853038 0.728038
vt 0.646962 0.750000
vt 0.353038 0.750000
vt 0.875000 0.728038
vt 0.853038 0.500000
vt 0.396962 0.771962
vt 0.396962 0.271962
vt 0.353038 0.728038
vt 0.603038 0.228038
vt 0.603038 0.978038
vt 0.853038 0.728038
vt 0.603038 0.728038
vt 0.603038 0.478038
vt 0.146962 0.500000
vt 0.603038 1.000000
vt 0.853038 0.750000
vt 0.875000 0.521962
vt 0.646962 0.500000
vn 0.0000 -0.5798 -0.8148
vn -0.7071 -0.5761 0.4100
vn 0.7071 -0.5761 0.4100
vn -0.0000 0.5798 0.8148
vn 0.7071 0.5761 -0.4100
vn -0.7071 0.5761 -0.4100
vn 0.0000 1.0000 -0.0030
vn 0.6045 -0.7933 -0.0723
vn -0.2376 0.7914 -0.5632
vn -0.6045 0.1917 -0.7732
vn -0.3669 0.1967 0.9092
vn 0.3669 0.7946 0.4838
vn -0.2376 -0.7914 0.5632
vn 0.3669 -0.1967 -0.9092
vn 0.6045 0.1917 -0.7732
vn -0.6045 -0.7933 -0.0723
vn -0.9714 0.1936 -0.1377
vn -0.6045 -0.1917 0.7732
vn -0.3669 -0.1967 -0.9092
vn 0.9714 0.1936 -0.1377
vn 0.3669 -0.7946 -0.4838
vn 0.6045 -0.1917 0.7732
vn -0.9714 -0.1936 0.1377
vn -0.6045 0.7933 0.0723
vn -0.3669 -0.7946 -0.4838
vn 0.9714 -0.1936 0.1377
vn 0.2376 -0.7914 0.5632
vn 0.0000 0.3305 -0.9438
vn 0.8165 0.3347 0.4704
vn 0.8165 -0.3347 -0.4704
vn -0.8165 0.3347 0.4704
vn -0.8165 -0.3347 -0.4704
vn 0.0000 -0.3305 0.9438
vn -0.0000 -1.0000 0.0030
vn -0.5000 -0.8174 -0.2862
vn -0.5000 -0.0026 -0.8660
vn 0.0000 0.8148 -0.5798
vn -0.0000 -0.8148 0.5798
vn 1.0000 0.0000 0.0000
vn -1.0000 0.0000 -0.0000
vn 0.5000 0.0026 0.8660
vn 0.5000 0.8174 0.2862
vn 0.5000 -0.8174 -0.2862
vn -0.5000 0.0026 0.8660
vn -0.5000 0.8174 0.2862
vn 0.5000 -0.0026 -0.8660
vn 0.3669 0.1967 0.9092
vn 0.2376 0.7914 -0.5632
vn -0.3669 0.7946 0.4838
vn 0.6045 0.7933 0.0723
usemtl Material
s off
f 4/1/1 22/2/1 18/3/1
f 19/4/2 16/5/2 24/6/2
f 9/7/3 23/8/3 11/9/3
f 15/10/4 8/11/4 2/12/4
f 3/13/5 10/14/5 6/15/5
f 13/16/6 5/17/6 17/18/6
f 31/19/7 30/20/7 32/21/7
f 50/22/8 28/23/8 36/24/8
f 39/25/9 59/26/9 42/27/9
f 44/28/10 71/29/10 54/30/10
f 48/31/11 70/32/11 56/33/11
f 42/27/12 29/34/12 38/35/12
f 41/36/13 60/37/13 26/38/13
f 35/39/14 25/40/14 39/25/14
f 54/30/15 64/41/15 50/22/15
f 36/24/16 58/42/16 44/28/16
f 56/33/17 68/43/17 51/44/17
f 40/45/18 30/46/18 34/47/18
f 45/48/19 31/19/19 33/49/19
f 52/50/20 72/51/20 55/52/20
f 41/36/21 69/53/21 52/50/21
f 34/47/22 61/54/22 47/55/22
f 33/49/23 27/56/23 37/57/23
f 53/58/24 57/59/24 40/45/24
f 51/44/25 63/60/25 46/61/25
f 38/35/26 32/62/26 35/39/26
f 48/31/27 63/60/27 65/63/27
f 28/23/28 27/64/28 29/65/28
f 25/40/29 57/66/29 26/67/29
f 59/26/30 60/68/30 58/69/30
f 62/70/31 63/71/31 61/72/31
f 65/63/32 66/73/32 64/74/32
f 68/43/33 69/75/33 67/76/33
f 71/29/34 72/77/34 70/78/34
f 71/29/35 65/79/35 64/41/35
f 64/41/36 27/64/36 28/23/36
f 29/34/37 31/19/37 32/62/37
f 69/53/38 70/80/38 72/51/38
f 60/37/39 25/40/39 26/38/39
f 66/81/40 63/60/40 62/70/40
f 67/82/41 26/83/41 57/59/41
f 57/59/42 32/62/42 30/46/42
f 71/29/43 60/84/43 72/77/43
f 61/54/44 68/85/44 67/82/44
f 30/46/45 62/86/45 61/54/45
f 58/42/46 29/34/46 59/26/46
f 55/52/47 60/37/47 43/87/47
f 49/88/48 62/70/48 45/48/48
f 37/57/49 66/81/49 49/88/49
f 47/55/50 67/82/50 53/58/50
f 4/1/1 12/89/1 22/2/1
f 19/4/2 14/90/2 16/5/2
f 9/7/3 20/91/3 23/8/3
f 15/10/4 21/92/4 8/11/4
f 3/13/5 7/93/5 10/14/5
f 13/16/6 1/94/6 5/17/6
f 50/22/8 64/41/8 28/23/8
f 39/25/9 25/40/9 59/26/9
f 44/28/10 58/42/10 71/29/10
f 48/31/11 65/63/11 70/32/11
f 42/27/12 59/26/12 29/34/12
f 41/36/13 43/87/13 60/37/13
f 35/39/14 32/62/14 25/40/14
f 54/30/15 71/29/15 64/41/15
f 36/24/16 28/23/16 58/42/16
f 56/33/17 70/32/17 68/43/17
f 40/45/18 57/59/18 30/46/18
f 45/48/19 62/70/19 31/19/19
f 52/50/20 69/53/20 72/51/20
f 41/36/21 26/38/21 69/53/21
f 34/47/22 30/46/22 61/54/22
f 33/49/23 31/19/23 27/56/23
f 53/58/24 67/82/24 57/59/24
f 51/44/25 68/43/25 63/60/25
f 38/35/26 29/34/26 32/62/26
f 48/31/27 46/61/27 63/60/27
f 71/29/35 70/78/35 65/79/35
f 64/41/36 66/95/36 27/64/36
f 29/34/37 27/56/37 31/19/37
f 69/53/38 68/96/38 70/80/38
f 60/37/39 59/26/39 25/40/39
f 66/81/40 65/63/40 63/60/40
f 67/82/41 69/97/41 26/83/41
f 57/59/42 25/40/42 32/62/42
f 71/29/43 58/42/43 60/84/43
f 61/54/44 63/98/44 68/85/44
f 30/46/45 31/99/45 62/86/45
f 58/42/46 28/23/46 29/34/46
f 55/52/47 72/51/47 60/37/47
f 49/88/48 66/81/48 62/70/48
f 37/57/49 27/56/49 66/81/49
f 47/55/50 61/54/50 67/82/50
